<svg width="216" height="283" viewBox="0 0 216 283" fill="none" xmlns="http://www.w3.org/2000/svg">
<path fill-rule="evenodd" clip-rule="evenodd" d="M84.7208 185.785C84.799 184.872 85.2322 183.387 86.2739 182.172C87.2418 181.043 88.9043 179.936 91.9717 179.936H127.463V173.067H91.9717C86.9487 173.067 83.3639 175.013 81.0593 177.701C78.8636 180.261 77.9927 183.296 77.8583 185.447L77.8516 185.554V207.032H51.1378V213.901H127.463V207.032H84.7208V185.785ZM30.53 221.915H37.3993V239.448C38.5279 241.011 41.2591 243.477 45.4134 243.477H77.8583V250.346H45.4134C37.3684 250.346 32.4786 244.958 30.9292 242.031L30.53 241.277V221.915Z" fill="white"/>
<path fill-rule="evenodd" clip-rule="evenodd" d="M156.848 8.01413H17.1731C12.1148 8.01413 8.01414 12.1148 8.01414 17.1731V265.611C8.01414 270.67 12.1148 274.77 17.1731 274.77H156.848C161.906 274.77 166.007 270.67 166.007 265.611V17.1731C166.007 12.1148 161.906 8.01413 156.848 8.01413ZM17.1731 0C7.68868 0 0 7.68867 0 17.1731V265.611C0 275.096 7.68868 282.784 17.1731 282.784H156.848C166.333 282.784 174.021 275.096 174.021 265.611V17.1731C174.021 7.68868 166.333 0 156.848 0H17.1731Z" fill="white"/>
<path d="M68.2682 53.2195H81.9941V102.722C81.9941 108.148 80.7115 112.92 78.1464 117.039C75.6059 121.158 72.0295 124.377 67.4172 126.696C62.8049 128.989 57.4157 130.136 51.2495 130.136C45.0587 130.136 39.6571 128.989 35.0448 126.696C30.4325 124.377 26.8561 121.158 24.3156 117.039C21.7752 112.92 20.5049 108.148 20.5049 102.722V53.2195H34.2309V101.575C34.2309 104.732 34.9215 107.544 36.3027 110.01C37.7086 112.476 39.6818 114.413 42.2222 115.819C44.7627 117.2 47.7718 117.89 51.2495 117.89C54.7272 117.89 57.7363 117.2 60.2768 115.819C62.8419 114.413 64.8151 112.476 66.1963 110.01C67.5775 107.544 68.2682 104.732 68.2682 101.575V53.2195Z" fill="white"/>
<path d="M108.382 53.2195L125.068 80.9673H125.66L142.42 53.2195H158.069L134.724 91.1045L158.439 128.989H142.531L125.66 101.427H125.068L108.197 128.989H92.3625L116.3 91.1045L92.6585 53.2195H108.382Z" fill="white"/>
<path fill-rule="evenodd" clip-rule="evenodd" d="M40.0707 204.551H29.0036C25.4205 204.551 22.5159 207.456 22.5159 211.039C22.5159 214.622 25.4205 217.527 29.0036 217.527H40.0707C43.6537 217.527 46.5583 214.622 46.5583 211.039C46.5583 207.456 43.6537 204.551 40.0707 204.551ZM29.0036 198.445C22.0483 198.445 16.4099 204.084 16.4099 211.039C16.4099 217.994 22.0483 223.633 29.0036 223.633H40.0707C47.026 223.633 52.6643 217.994 52.6643 211.039C52.6643 204.084 47.026 198.445 40.0707 198.445H29.0036Z" fill="white"/>
<path fill-rule="evenodd" clip-rule="evenodd" d="M127.081 240.043H87.7738C84.1908 240.043 81.2862 242.947 81.2862 246.53C81.2862 250.113 84.1908 253.018 87.7738 253.018H127.081C130.664 253.018 133.569 250.113 133.569 246.53C133.569 242.947 130.664 240.043 127.081 240.043ZM87.7738 233.937C80.8185 233.937 75.1802 239.575 75.1802 246.53C75.1802 253.485 80.8185 259.124 87.7738 259.124H127.081C134.037 259.124 139.675 253.485 139.675 246.53C139.675 239.575 134.037 233.937 127.081 233.937H87.7738Z" fill="white"/>
<path fill-rule="evenodd" clip-rule="evenodd" d="M138.148 196.537C131.193 196.537 125.555 202.175 125.555 209.131V211.039C125.555 217.994 131.193 223.633 138.148 223.633H203.406C210.362 223.633 216 217.994 216 211.039V209.131C216 202.175 210.362 196.537 203.406 196.537H138.148Z" fill="white"/>
<path fill-rule="evenodd" clip-rule="evenodd" d="M138.148 162.954C131.193 162.954 125.555 168.592 125.555 175.548V177.456C125.555 184.411 131.193 190.05 138.148 190.05H203.406C210.362 190.05 216 184.411 216 177.456V175.548C216 168.592 210.362 162.954 203.406 162.954H138.148Z" fill="white"/>
<path fill-rule="evenodd" clip-rule="evenodd" d="M119.83 7.25103H54.5724C50.9894 7.25103 48.0848 10.1556 48.0848 13.7387V15.6468C48.0848 19.2298 50.9894 22.1344 54.5724 22.1344H119.83C123.413 22.1344 126.318 19.2298 126.318 15.6468V13.7387C126.318 10.1556 123.413 7.25103 119.83 7.25103ZM54.5724 1.14502C47.6171 1.14502 41.9788 6.78338 41.9788 13.7387V15.6468C41.9788 22.6021 47.6171 28.2404 54.5724 28.2404H119.83C126.786 28.2404 132.424 22.6021 132.424 15.6468V13.7387C132.424 6.78338 126.786 1.14502 119.83 1.14502H54.5724Z" fill="white"/>
<path d="M154.177 19.0813C154.177 22.032 151.785 24.424 148.834 24.424C145.883 24.424 143.491 22.032 143.491 19.0813C143.491 16.1306 145.883 13.7385 148.834 13.7385C151.785 13.7385 154.177 16.1306 154.177 19.0813Z" fill="#D9D9D9"/>
</svg>
